<svg xmlns="http://www.w3.org/2000/svg"  viewBox="0 0 50 50" width="100px" height="100px"><path d="M 25 2 C 12.317 2 2 12.317 2 25 C 2 37.683 12.317 48 25 48 C 37.683 48 48 37.683 48 25 C 48 12.317 37.683 2 25 2 z M 25 4 C 36.579 4 46 13.421 46 25 C 46 36.579 36.579 46 25 46 C 13.421 46 4 36.579 4 25 C 4 13.421 13.421 4 25 4 z M 14.523438 11.984375 C 14.357937 11.995 14.193828 12.047172 14.048828 12.138672 C 13.759828 12.322672 13.585938 12.639422 13.585938 12.982422 L 13.585938 30.339844 C 13.585938 30.727844 13.808203 31.078187 14.158203 31.242188 L 20.527344 34.240234 L 20.527344 40.017578 C 20.527344 40.364578 20.706953 40.686141 21.001953 40.869141 C 21.161953 40.969141 21.345344 41.017578 21.527344 41.017578 C 21.680344 41.017578 21.833609 40.982109 21.974609 40.912109 L 35.859375 33.970703 C 36.198375 33.800703 36.412109 33.455172 36.412109 33.076172 L 36.412109 15.585938 C 36.413109 15.238938 36.234453 14.917375 35.939453 14.734375 C 35.644453 14.550375 35.276797 14.536406 34.966797 14.691406 L 27.980469 18.183594 C 27.975469 18.181594 27.97275 18.177781 27.96875 18.175781 L 15.011719 12.076172 C 14.856719 12.003172 14.688938 11.97375 14.523438 11.984375 z M 15.585938 14.558594 L 25.705078 19.322266 L 23.455078 20.447266 L 17.933594 18.15625 C 17.425594 17.94525 16.839953 18.186266 16.626953 18.697266 C 16.414953 19.207266 16.656969 19.793859 17.167969 20.005859 L 21.087891 21.630859 L 21.080078 21.634766 C 20.741078 21.804766 20.527344 22.150297 20.527344 22.529297 L 20.527344 23.572266 L 17.931641 22.496094 C 17.423641 22.286094 16.838 22.527109 16.625 23.037109 C 16.413 23.547109 16.655016 24.133703 17.166016 24.345703 L 20.527344 25.738281 L 20.527344 27.914062 L 17.931641 26.837891 C 17.423641 26.626891 16.836047 26.867906 16.623047 27.378906 C 16.411047 27.888906 16.653063 28.473547 17.164062 28.685547 L 20.525391 30.080078 L 20.525391 32.033203 L 15.585938 29.703125 L 15.585938 14.558594 z M 34.414062 17.203125 L 34.414062 32.457031 L 22.527344 38.398438 L 22.527344 29.416016 L 22.527344 29.390625 L 22.527344 25.076172 L 22.527344 25.050781 L 22.527344 23.146484 L 34.414062 17.203125 z M 32.125 20.542969 C 31.995563 20.551125 31.864937 20.585234 31.742188 20.646484 L 24.492188 24.265625 C 23.998188 24.512625 23.797922 25.113422 24.044922 25.607422 C 24.220922 25.958422 24.574406 26.160156 24.941406 26.160156 C 25.091406 26.160156 25.244719 26.125688 25.386719 26.054688 L 32.636719 22.435547 C 33.130719 22.188547 33.330984 21.58775 33.083984 21.09375 C 32.898734 20.7225 32.513312 20.5185 32.125 20.542969 z M 32.125 24.882812 C 31.995563 24.891016 31.864937 24.924828 31.742188 24.986328 L 24.492188 28.605469 C 23.998188 28.852469 23.797922 29.453266 24.044922 29.947266 C 24.220922 30.298266 24.574406 30.5 24.941406 30.5 C 25.091406 30.5 25.244719 30.465531 25.386719 30.394531 L 32.636719 26.775391 C 33.130719 26.528391 33.330984 25.927594 33.083984 25.433594 C 32.898734 25.062344 32.513312 24.858203 32.125 24.882812 z M 32.125 29.222656 C 31.995563 29.230891 31.864937 29.264922 31.742188 29.326172 L 24.492188 32.945312 C 23.998188 33.192312 23.797922 33.793109 24.044922 34.287109 C 24.220922 34.638109 24.574406 34.839844 24.941406 34.839844 C 25.091406 34.839844 25.244719 34.805375 25.386719 34.734375 L 32.636719 31.115234 C 33.130719 30.868234 33.330984 30.267437 33.083984 29.773438 C 32.898734 29.401438 32.513312 29.197953 32.125 29.222656 z"/></svg>